<mxfile host="app.diagrams.net" modified="2024-02-24T10:46:52.617Z" agent="Mozilla/5.0 (Windows NT 10.0; Win64; x64) AppleWebKit/537.36 (KHTML, like Gecko) Chrome/122.0.0.0 Safari/537.36" etag="NL4k1mrGEA6XTGyUmclQ" version="23.1.6" type="device">
  <diagram id="C5RBs43oDa-KdzZeNtuy" name="Page-1">
    <mxGraphModel dx="1050" dy="572" grid="1" gridSize="10" guides="1" tooltips="1" connect="1" arrows="1" fold="1" page="1" pageScale="1" pageWidth="827" pageHeight="1169" math="0" shadow="0">
      <root>
        <mxCell id="WIyWlLk6GJQsqaUBKTNV-0" />
        <mxCell id="WIyWlLk6GJQsqaUBKTNV-1" parent="WIyWlLk6GJQsqaUBKTNV-0" />
        <mxCell id="eJADLtLai4jU1OWhwEL8-1" style="edgeStyle=orthogonalEdgeStyle;rounded=0;orthogonalLoop=1;jettySize=auto;html=1;exitX=0.25;exitY=1;exitDx=0;exitDy=0;" edge="1" parent="WIyWlLk6GJQsqaUBKTNV-1" source="WIyWlLk6GJQsqaUBKTNV-3" target="eJADLtLai4jU1OWhwEL8-2">
          <mxGeometry relative="1" as="geometry">
            <mxPoint x="319" y="140" as="targetPoint" />
            <Array as="points">
              <mxPoint x="419" y="100" />
            </Array>
          </mxGeometry>
        </mxCell>
        <mxCell id="WIyWlLk6GJQsqaUBKTNV-3" value="Lad Dataset" style="rounded=1;whiteSpace=wrap;html=1;fontSize=12;glass=0;strokeWidth=1;shadow=0;" parent="WIyWlLk6GJQsqaUBKTNV-1" vertex="1">
          <mxGeometry x="349" y="60" width="140" height="40" as="geometry" />
        </mxCell>
        <mxCell id="eJADLtLai4jU1OWhwEL8-4" style="edgeStyle=orthogonalEdgeStyle;rounded=0;orthogonalLoop=1;jettySize=auto;html=1;exitX=0.25;exitY=1;exitDx=0;exitDy=0;" edge="1" parent="WIyWlLk6GJQsqaUBKTNV-1" source="eJADLtLai4jU1OWhwEL8-2" target="eJADLtLai4jU1OWhwEL8-5">
          <mxGeometry relative="1" as="geometry">
            <mxPoint x="384" y="200" as="targetPoint" />
          </mxGeometry>
        </mxCell>
        <mxCell id="eJADLtLai4jU1OWhwEL8-10" style="edgeStyle=orthogonalEdgeStyle;rounded=0;orthogonalLoop=1;jettySize=auto;html=1;exitX=0.5;exitY=1;exitDx=0;exitDy=0;entryX=0.5;entryY=0;entryDx=0;entryDy=0;" edge="1" parent="WIyWlLk6GJQsqaUBKTNV-1" source="eJADLtLai4jU1OWhwEL8-2" target="eJADLtLai4jU1OWhwEL8-7">
          <mxGeometry relative="1" as="geometry" />
        </mxCell>
        <mxCell id="eJADLtLai4jU1OWhwEL8-11" style="edgeStyle=orthogonalEdgeStyle;rounded=0;orthogonalLoop=1;jettySize=auto;html=1;exitX=0.75;exitY=1;exitDx=0;exitDy=0;entryX=0.5;entryY=0;entryDx=0;entryDy=0;" edge="1" parent="WIyWlLk6GJQsqaUBKTNV-1" source="eJADLtLai4jU1OWhwEL8-2" target="eJADLtLai4jU1OWhwEL8-8">
          <mxGeometry relative="1" as="geometry" />
        </mxCell>
        <mxCell id="eJADLtLai4jU1OWhwEL8-2" value="Data Preprocessing" style="rounded=1;whiteSpace=wrap;html=1;" vertex="1" parent="WIyWlLk6GJQsqaUBKTNV-1">
          <mxGeometry x="349" y="130" width="140" height="40" as="geometry" />
        </mxCell>
        <mxCell id="eJADLtLai4jU1OWhwEL8-15" style="edgeStyle=orthogonalEdgeStyle;rounded=0;orthogonalLoop=1;jettySize=auto;html=1;exitX=0.25;exitY=1;exitDx=0;exitDy=0;entryX=0.5;entryY=0;entryDx=0;entryDy=0;" edge="1" parent="WIyWlLk6GJQsqaUBKTNV-1" source="eJADLtLai4jU1OWhwEL8-5" target="eJADLtLai4jU1OWhwEL8-12">
          <mxGeometry relative="1" as="geometry" />
        </mxCell>
        <mxCell id="eJADLtLai4jU1OWhwEL8-17" style="edgeStyle=orthogonalEdgeStyle;rounded=0;orthogonalLoop=1;jettySize=auto;html=1;exitX=0.5;exitY=1;exitDx=0;exitDy=0;entryX=0.5;entryY=0;entryDx=0;entryDy=0;" edge="1" parent="WIyWlLk6GJQsqaUBKTNV-1" source="eJADLtLai4jU1OWhwEL8-5" target="eJADLtLai4jU1OWhwEL8-13">
          <mxGeometry relative="1" as="geometry" />
        </mxCell>
        <mxCell id="eJADLtLai4jU1OWhwEL8-5" value="Missing values" style="rounded=1;whiteSpace=wrap;html=1;" vertex="1" parent="WIyWlLk6GJQsqaUBKTNV-1">
          <mxGeometry x="49" y="210" width="140" height="40" as="geometry" />
        </mxCell>
        <mxCell id="eJADLtLai4jU1OWhwEL8-20" style="edgeStyle=orthogonalEdgeStyle;rounded=0;orthogonalLoop=1;jettySize=auto;html=1;exitX=0.25;exitY=1;exitDx=0;exitDy=0;entryX=0.5;entryY=0;entryDx=0;entryDy=0;" edge="1" parent="WIyWlLk6GJQsqaUBKTNV-1" source="eJADLtLai4jU1OWhwEL8-7" target="eJADLtLai4jU1OWhwEL8-18">
          <mxGeometry relative="1" as="geometry" />
        </mxCell>
        <mxCell id="eJADLtLai4jU1OWhwEL8-7" value="Label Encoding" style="rounded=1;whiteSpace=wrap;html=1;" vertex="1" parent="WIyWlLk6GJQsqaUBKTNV-1">
          <mxGeometry x="349" y="210" width="140" height="40" as="geometry" />
        </mxCell>
        <mxCell id="eJADLtLai4jU1OWhwEL8-8" value="x, y split and train, test&lt;br&gt;dataset" style="rounded=1;whiteSpace=wrap;html=1;" vertex="1" parent="WIyWlLk6GJQsqaUBKTNV-1">
          <mxGeometry x="610" y="210" width="140" height="40" as="geometry" />
        </mxCell>
        <mxCell id="eJADLtLai4jU1OWhwEL8-12" value="&lt;font style=&quot;font-size: 10px;&quot;&gt;pandas&lt;br&gt;fillna, dropna&lt;/font&gt;" style="shape=parallelogram;perimeter=parallelogramPerimeter;whiteSpace=wrap;html=1;fixedSize=1;" vertex="1" parent="WIyWlLk6GJQsqaUBKTNV-1">
          <mxGeometry y="280" width="90" height="40" as="geometry" />
        </mxCell>
        <mxCell id="eJADLtLai4jU1OWhwEL8-13" value="" style="shape=parallelogram;perimeter=parallelogramPerimeter;whiteSpace=wrap;html=1;fixedSize=1;" vertex="1" parent="WIyWlLk6GJQsqaUBKTNV-1">
          <mxGeometry x="80" y="280" width="90" height="40" as="geometry" />
        </mxCell>
        <mxCell id="eJADLtLai4jU1OWhwEL8-18" value="&lt;p style=&quot;line-height: 109%; font-size: 8px;&quot;&gt;&lt;font style=&quot;font-size: 8px;&quot;&gt;sklearn&lt;br&gt;(one_hot, column trasnfrormer)&lt;/font&gt;&lt;/p&gt;" style="shape=parallelogram;perimeter=parallelogramPerimeter;whiteSpace=wrap;html=1;fixedSize=1;" vertex="1" parent="WIyWlLk6GJQsqaUBKTNV-1">
          <mxGeometry x="290" y="280" width="90" height="40" as="geometry" />
        </mxCell>
        <mxCell id="eJADLtLai4jU1OWhwEL8-19" value="pd.get_&lt;br&gt;dummies" style="shape=parallelogram;perimeter=parallelogramPerimeter;whiteSpace=wrap;html=1;fixedSize=1;" vertex="1" parent="WIyWlLk6GJQsqaUBKTNV-1">
          <mxGeometry x="440" y="280" width="90" height="40" as="geometry" />
        </mxCell>
        <mxCell id="eJADLtLai4jU1OWhwEL8-21" style="edgeStyle=orthogonalEdgeStyle;rounded=0;orthogonalLoop=1;jettySize=auto;html=1;exitX=0.75;exitY=1;exitDx=0;exitDy=0;entryX=0.582;entryY=0.03;entryDx=0;entryDy=0;entryPerimeter=0;" edge="1" parent="WIyWlLk6GJQsqaUBKTNV-1" source="eJADLtLai4jU1OWhwEL8-7" target="eJADLtLai4jU1OWhwEL8-19">
          <mxGeometry relative="1" as="geometry" />
        </mxCell>
      </root>
    </mxGraphModel>
  </diagram>
</mxfile>
